<?xml version="1.0" encoding="UTF-8"?>
<!DOCTYPE svg PUBLIC "-//W3C//DTD SVG 1.1//EN" "http://www.w3.org/Graphics/SVG/1.1/DTD/svg11.dtd">
<!-- Creator: CorelDRAW 2020 (64-Bit) -->
<svg xmlns="http://www.w3.org/2000/svg" xml:space="preserve" width="279.4mm" height="215.9mm" version="1.1" style="shape-rendering:geometricPrecision; text-rendering:geometricPrecision; image-rendering:optimizeQuality; fill-rule:evenodd; clip-rule:evenodd"
viewBox="0 0 27940 21590"
 xmlns:xlink="http://www.w3.org/1999/xlink"
 xmlns:xodm="http://www.corel.com/coreldraw/odm/2003">
 <defs>
  <style type="text/css">
   <![CDATA[
    .str1 {stroke:#AD4336;stroke-width:458.61;stroke-miterlimit:10}
    .str0 {stroke:#C44029;stroke-width:105.83;stroke-miterlimit:10}
    .str2 {stroke:black;stroke-width:388.06;stroke-miterlimit:10}
    .str3 {stroke:black;stroke-width:35.28;stroke-miterlimit:10}
    .fil1 {fill:none;fill-rule:nonzero}
    .fil0 {fill:black}
    .fil6 {fill:black;fill-rule:nonzero}
    .fil5 {fill:#120A00;fill-rule:nonzero}
    .fil9 {fill:#161513;fill-rule:nonzero}
    .fil10 {fill:#1E1F23;fill-rule:nonzero}
    .fil2 {fill:#212226;fill-rule:nonzero}
    .fil3 {fill:#C44029;fill-rule:nonzero}
    .fil7 {fill:#D09D80;fill-rule:nonzero}
    .fil11 {fill:#FBF7EE;fill-rule:nonzero}
    .fil4 {fill:#FCF5E3;fill-rule:nonzero}
    .fil8 {fill:url(#id0)}
   ]]>
  </style>
  <linearGradient id="id0" gradientUnits="userSpaceOnUse" x1="7258.39" y1="10382.74" x2="10650.17" y2="10382.74">
   <stop offset="0" style="stop-opacity:1; stop-color:#DAA071"/>
   <stop offset="0.329412" style="stop-opacity:1; stop-color:#B87B5E"/>
   <stop offset="0.74902" style="stop-opacity:1; stop-color:#58252C"/>
   <stop offset="1" style="stop-opacity:1; stop-color:#492E27"/>
  </linearGradient>
 </defs>
 <g id="Layer_x0020_1">
  <metadata id="CorelCorpID_0Corel-Layer"/>
  <circle class="fil0" cx="43100.87" cy="-4872.62" r="7148.98"/>
 </g>
 <g id="MUESTRAS">
  <metadata id="CorelCorpID_1Corel-Layer"/>
  <g id="_2792359434464">
   <line class="fil1 str0" x1="12724.02" y1="9562.11" x2="14616.54" y2= "8855.25" />
   <line class="fil1 str0" x1="12472.59" y1="8855.26" x2="13932.49" y2= "8148.41" />
   <line class="fil1 str0" x1="11925.96" y1="7897.6" x2="13088.83" y2= "6894.32" />
   <line class="fil1 str0" x1="11287.52" y1="7053.94" x2="12039.97" y2= "5982.27" />
   <line class="fil1 str0" x1="10440.43" y1="6147.27" x2="10899.89" y2= "5252.62" />
   <line class="fil1 str0" x1="9640.07" y1="5252.62" x2="9691.42" y2= "4865" />
   <line class="fil1 str0" x1="7388.46" y1="5891.06" x2="7147.94" y2= "5252.63" />
   <line class="fil1 str0" x1="6815.8" y1="7164.08" x2="5979.58" y2= "5982.27" />
   <line class="fil1 str0" x1="6145.32" y1="7963" x2="4919.19" y2= "6894.34" />
   <line class="fil1 str0" x1="5616.43" y1="8855.26" x2="4309.12" y2= "8148.41" />
   <line class="fil1 str0" x1="5398.54" y1="9562.11" x2="3740.2" y2= "9060.47" />
   <path class="fil2" d="M2555.45 11515.84l13179.22 -1958.52c467.21,-69.43 886.46,293.79 884.29,766.13l-25.93 5653.54c-1.79,390.47 -295.22,717.96 -683.17,762.42l-13118.04 1503.53c-455.51,52.21 -855.64,-302.25 -858.76,-760.73l-35.23 -5198.54c-2.6,-384.01 277.78,-711.38 657.62,-767.83z"/>
   <path class="fil1 str1" d="M2555.45 11515.84l13179.22 -1958.52c467.21,-69.43 886.46,293.79 884.29,766.13l-25.93 5653.54c-1.79,390.47 -295.22,717.96 -683.17,762.42l-13118.04 1503.53c-455.51,52.21 -855.64,-302.25 -858.76,-760.73l-35.23 -5198.54c-2.6,-384.01 277.78,-711.38 657.62,-767.83z"/>
   <path class="fil3" d="M12860.75 14520.18c-177.64,27.77 -355.17,57.81 -532.36,89.81 -62.1,-31.1 -110.2,-91.59 -144.2,-181.68 -129.24,155.35 -339.02,282.37 -514.6,307.3 -199.58,28.33 -401.79,44.82 -600.03,-21.93 -179.28,-60.39 -325.07,-176.1 -432.54,-342.6 -126.05,-195.28 -144.58,-439.76 -160.81,-680.38l0 -169.88c-4.43,-56.46 -20.72,-117.08 -48.81,-181.75 -28.07,-64.66 -64.32,-108.03 -108.68,-130.14 44.36,-43.83 80.58,-103.53 108.68,-179.2 28.09,-75.62 44.38,-142.66 48.81,-201.14l0 -169.89c17.29,-266 43.79,-522.6 159.71,-752.02 109.3,-216.32 264,-414.45 439.2,-534.9 205.99,-141.62 397.13,-214.98 634.39,-280.29 383.14,-75.34 766.62,-145.08 1151.24,-207.42 -99.21,319.61 -198.29,639.27 -297.24,959.01 -57.67,-42.56 -145.31,-71.06 -262.85,-84.5 -117.53,-13.44 -222.2,-11.13 -313.87,6.4 -77.19,14.76 -115.79,22.27 -192.99,37.51 -130.15,25.69 -233.27,75.89 -309.44,149.92 -76.16,73.99 -130.51,164.41 -163.03,270.97 -32.55,106.59 -48.79,219.9 -48.79,339.9l0 73.53c0,50.71 14.78,112.26 44.36,184.65 29.57,72.36 68,120.56 115.33,144.55 -47.33,45.31 -85.76,109.57 -115.33,192.68 -29.6,83.16 -44.36,151.77 -44.36,205.84l0 71.02c0,121.7 14.78,228.9 44.36,321.57 29.57,92.63 73.54,162.05 131.97,208.29 58.4,46.25 132,60.3 220.72,42.48 88.72,-17.84 162.67,-61.52 221.83,-131.34 59.11,-69.79 103.12,-156.83 131.96,-261.2 28.85,-104.36 43.25,-217.38 43.25,-339.1 0,-185.93 -53.22,-336.59 -159.7,-451.22 370.25,-72.25 741.49,-137.2 1113.52,-193.11 -45.86,77.87 -83.93,196.61 -114.23,355.95 -30.31,159.36 -45.47,291.54 -45.47,396.34 0,378.66 0,757.31 0,1135.97z"/>
   <path class="fil3" d="M4115.69 15744.93c-405.7,77.35 -808.98,153.71 -1219.11,201.08 42.63,-73.62 166.91,-207.91 182.4,-364.83 15.49,-156.87 42.25,-1160.38 0,-1231.28 -42.23,-70.88 -173.34,-176.49 -228.02,-205.22 46.73,-38.94 233.84,-132.88 228.02,-182.4 -27.85,-236.93 61.94,-1122.7 -22.8,-1254.09 -102.84,-159.47 -211.08,-312.58 -228.02,-364.82 501.64,205.2 1573.31,68.4 2211.75,-342.03 -72.75,323.23 0,752.45 45.61,1140.09 -28.5,-14.41 -104.55,-161.78 -319.23,-182.42 -315.84,-30.39 -813.67,69.46 -934.85,91.2 36.57,311.21 -13.78,350.03 22.79,661.25 70.03,-12.67 357.8,19.24 501.64,-45.61 143.81,-64.84 304.7,-230.32 364.82,-296.42 -13.55,354.8 -40.7,1139.96 0,1140.09 0,0 -41.32,-172.93 -250.82,-182.42 -198.87,-9.02 -495.24,29.49 -615.64,68.4 22.82,194.17 -19.86,477.01 2.97,671.18 11.83,100.71 -2.97,423.3 -2.97,423.3 0,0 203.3,196.83 261.46,254.95z"/>
   <path class="fil3" d="M6566.53 15403.31c-184.98,35.18 -396.93,30.2 -586.92,-36.63 -148.92,-52.38 -329.05,-200.93 -422.04,-356.87 -116.17,-194.86 -140.26,-434.69 -156.22,-672.4l0 -147.7c0,-52.49 -14.84,-113.98 -44.48,-184.44 -29.64,-70.45 -66.92,-119.84 -111.74,-148.23 44.82,-38.9 82.07,-98.24 111.74,-177.94 29.62,-79.64 44.48,-144.99 44.48,-195.87l0 -706.49c0,-101.73 -14.84,-225.96 -44.48,-372.76 -29.64,-146.75 -66.92,-250.69 -111.74,-311.93 363.97,-48.86 727.08,-108.77 1089.24,-175.22 -44.86,75.54 -82.11,191.38 -111.76,347.66 -29.66,156.33 -44.47,285.29 -44.47,387.02l0 711.4c2.88,53.64 18.45,114.1 46.65,181.23 28.21,67.17 64.72,113.09 109.58,137.69 -44.86,42.68 -81.37,102.19 -109.58,178.62 -28.2,76.46 -43.77,142.83 -46.65,199.1l0 73.85c0,118.17 14.47,222.71 43.39,313.51 28.92,90.78 71.95,159.38 129.12,205.49 57.11,46.12 129.09,61.02 215.88,44.43 86.78,-16.6 158.75,-59.01 215.89,-126.95 57.13,-67.9 100.17,-152.89 129.11,-254.71 28.92,-101.82 43.39,-211.86 43.39,-330.01l0 -68.94c0,-52.49 -14.47,-113.18 -43.39,-182 -28.92,-68.8 -66.56,-115.83 -112.84,-141.13 46.28,-41.99 83.9,-104.12 112.84,-186.27 28.92,-82.11 43.39,-147.84 43.39,-197.08l0 -706.49c0,-101.73 -14.1,-225.22 -42.31,-370.54 -28.2,-145.25 -65.47,-246.91 -111.75,-305.03 363.73,-71.96 726.58,-150.47 1089.24,-230.27 -46.31,77.56 -83.9,194.98 -112.82,352.29 -28.96,157.4 -43.39,286.9 -43.39,388.64l0 726.17c4.33,54.87 20.27,113.36 47.72,175.38 27.48,62.03 62.94,103.06 106.33,122.99 -43.39,40.82 -78.85,98.28 -106.33,172.39 -27.49,74.17 -43.39,139.61 -47.72,196.34l0 167.39c-17.06,258.29 -47.07,508.53 -157.32,729.7 -95.67,191.92 -261.28,406.79 -422.02,514.27 -195.4,130.66 -378.37,220.48 -588.02,260.34z"/>
   <path class="fil3" d="M10321.79 14851.03c-831.44,101.06 -1662.25,213.39 -2493.71,314.3 54.16,-74.71 104.19,-191.87 149.99,-351.37 45.78,-159.44 73.36,-290.57 82.67,-393.21 21.83,-240.63 43.67,-481.27 65.5,-721.89 4.88,-53.83 -5.06,-117.13 -29.78,-189.83 -24.73,-72.69 -59.5,-123.85 -104.19,-153.46 50.94,-39.38 95.86,-100.16 134.65,-182.24 38.77,-82.07 60.45,-148.4 65.03,-198.89 21.91,-241.45 43.81,-482.92 65.73,-724.4 9.45,-104.32 5.36,-231.95 -12.27,-382.93 -17.62,-150.91 -47.32,-258 -88.96,-321.29 831.46,-100.92 1662.27,-213.23 2493.72,-314.3 -131.04,314.67 -262.01,629.35 -392.94,944.06 -57.14,-44.47 -145.25,-76.37 -264.24,-95.41 -119.03,-19.01 -226.55,-22.29 -322.43,-9.97 -194.15,24.98 -388.28,50.1 -582.43,75.12 -21.89,241.48 -43.81,482.95 -65.71,724.42 66.83,-8.61 100.24,-12.92 167.07,-21.56 95.9,-12.37 216.56,-45.02 362.03,-97.84 145.42,-52.8 251.44,-109.18 318.04,-169.22 -32.82,361.79 -65.65,723.56 -98.47,1085.35 -56.97,-45.95 -155.13,-76.28 -294.45,-90.76 -139.36,-14.49 -256.98,-15.5 -352.88,-3.11 -66.82,8.62 -100.24,12.94 -167.06,21.54 -21.84,240.63 -43.65,481.26 -65.49,721.89 194.14,-25.02 388.27,-50.15 582.42,-75.12 95.87,-12.33 206.45,-43.1 331.7,-92.25 125.2,-49.1 221.11,-103.48 287.7,-163.32 76.33,288.54 152.58,577.09 228.76,865.69z"/>
   <path class="fil3" d="M14519.18 13667.77c92.87,-8.59 170.44,-45.11 232.64,-110.15 62.16,-65 109,-149.43 140.5,-253.57 31.49,-104.14 47.25,-218.87 47.25,-344.31l0 -73.17c0,-55.73 -15.34,-122.2 -46.05,-199.32 -30.72,-77.06 -71.27,-132.06 -121.64,-164.72 50.37,-38.76 90.92,-99.65 121.64,-182.84 30.71,-83.18 46.05,-150.84 46.05,-203.09 0,-175.94 -13.39,-313.55 -40.16,-412.72 -61.4,-218.66 -188.15,-321.21 -380.23,-303.45 -193.69,17.93 -321.21,143.94 -382.63,373.84 -28.33,106.03 -47.06,253.72 -42.51,425.59 1.52,57.07 20.08,124.41 50.78,196.74 30.69,72.32 70.46,123.23 119.27,152.88 -48.81,41.78 -88.58,102.37 -119.27,181.59 -30.7,79.25 -47.65,148.75 -50.78,208.32l0 78.39c0,125.44 15.73,237.3 47.23,335.64 31.51,98.34 78.72,174.1 141.72,227.58 62.95,53.46 141.71,75.5 236.19,66.77zm0 749.98c-205.87,19.01 -436.64,-2.36 -642.44,-81.17 -161.78,-61.97 -356.02,-221.73 -458.18,-388.28 -126.71,-206.57 -152.68,-460.63 -170.04,-712.7l0 -156.78c0,-55.74 -16.16,-120.82 -48.42,-195.04 -32.24,-74.21 -72.85,-125.79 -121.64,-154.57 48.79,-42.65 89.36,-106.96 121.64,-192.99 32.26,-85.98 48.42,-155.12 48.42,-207.39l0 -156.78c18.22,-270.21 49.61,-533.62 170.04,-763.75 102.58,-196 289.77,-405.25 458.18,-514.56 198.92,-129.1 430.63,-203.85 642.44,-223.28 204.34,-18.76 435.63,10.64 638.87,105.66 165.09,77.18 356.64,257.26 458.19,433.96 124.51,216.65 153.34,474.82 171.22,735.08l0 177.69c4.72,59.21 22.43,124.74 53.14,196.75 30.7,72.06 69.69,123.63 116.92,154.99 -47.23,33.11 -86.22,85.16 -116.92,155.99 -30.71,70.8 -48.42,137.67 -53.14,200.45l0 177.7c-18.01,262.67 -47.37,521.35 -171.22,741.35 -103.66,184.08 -292.45,374.42 -458.19,468.88 -199.81,113.88 -428.52,179.35 -638.87,198.79z"/>
   <path class="fil3" d="M12091.57 10926.14c0,0 932,-840.56 179.18,-2346.5 0,0 0.01,885.42 -179.22,1283.25 0,0 215.05,-1808.59 -824.53,-2544.03 0,0 215.1,875.54 -215.06,1225.78 0,0 179.2,-1540.99 -1003.77,-2591.63 -1182.98,-1050.65 -1147.15,-1435.9 -1147.15,-1435.9 0,0 -107.54,-455.27 322.6,-805.51 0,0 -645.23,-175.11 -967.84,980.65 -212.16,760.1 -67.7,1232.38 56.05,1466.65 145.64,275.7 231.16,578.52 245.32,888.45 12.54,274.46 -24.77,561.76 -193.75,726.85 0,0 35.83,-1260.79 -860.36,-1540.95 0,0 35.89,2066.31 -609.34,2486.6 0,0 215.05,-882.93 -0.03,-1246.98 0,0 -358.45,1176.94 -752.76,1352.06 -394.3,175.12 -788.58,2136.38 537.78,2976.9 0,0 4086.55,-35.13 5412.88,-875.69z"/>
   <path class="fil1 str2" d="M12091.57 10926.14c0,0 932,-840.56 179.18,-2346.5 0,0 0.01,885.42 -179.22,1283.25 0,0 215.05,-1808.59 -824.53,-2544.03 0,0 215.1,875.54 -215.06,1225.78 0,0 179.2,-1540.99 -1003.77,-2591.63 -1182.98,-1050.65 -1147.15,-1435.9 -1147.15,-1435.9 0,0 -107.54,-455.27 322.6,-805.51 0,0 -645.23,-175.11 -967.84,980.65 -212.16,760.1 -67.7,1232.38 56.05,1466.65 145.64,275.7 231.16,578.52 245.32,888.45 12.54,274.46 -24.77,561.76 -193.75,726.85 0,0 35.83,-1260.79 -860.36,-1540.95 0,0 35.89,2066.31 -609.34,2486.6 0,0 215.05,-882.93 -0.03,-1246.98 0,0 -358.45,1176.94 -752.76,1352.06 -394.3,175.12 -788.58,2136.38 537.78,2976.9 0,0 4086.55,-35.13 5412.88,-875.69z"/>
   <path class="fil4" d="M11417.37 11136.28c0,0 490.29,-805.53 455.27,-1260.81 -2.52,92 -387.55,1030.21 -735.44,1085.7 0,0 137.31,-201.41 266.85,-477.87 202.94,-433.07 201.76,-934.4 -0.49,-1367.79l-21.27 -45.56 5.53 121.29c19.4,426.72 -62.58,851.98 -239.25,1240.92l-11.39 25.11c0,0 245.13,-861.98 -140.14,-1562.42 0,0 70.06,525.34 -210.1,910.59 -233.04,320.46 -280.17,280.19 -280.17,280.19 0,0 224.76,-735.47 199.91,-1190.76 0,0 -269.97,735.47 -480.11,735.47 0,0 665.4,-1225.8 140.04,-2171.39 0,0 225.32,1260.8 -255.05,1838.68 0,0 395.16,-1068.19 79.95,-1698.59 0,0 70.08,1295.83 -350.18,1576.02 0,0 350.2,-525.34 210.09,-1435.91l-210.11 910.57c0,0 105.04,-1120.71 -70.1,-1797.22l-140.05 1411.99c315.17,-1681.08 -840.59,-2626.67 -665.47,-2416.53 58.13,69.76 135.59,224.47 213.11,400.02 291.6,660.31 355.47,1399.66 181.08,2100.09 -5.61,22.52 -8.9,34.78 -8.9,34.78 105.06,-477.03 -0.01,-1098.98 -0.01,-1098.98 0.01,560.35 -391.7,1422.05 -391.7,1422.05 483.79,-1239.65 -125.89,-2516.54 -125.89,-2516.54 323.02,1146.9 -77.76,2465.55 -77.76,2465.55 175.1,-415.11 -0.03,-1265.99 -0.03,-1265.99 -35,735.47 -280.15,1190.77 -280.15,1190.77 70.03,-210.14 70.03,-525.34 70.03,-525.34 -315.19,595.4 -700.41,1646.08 -700.41,1646.08 -31.52,-63.04 -47.29,-160.77 -53.92,-266.66 -15.7,-251.53 19.81,-504.2 99.46,-743.29 255.5,-767.15 -10.58,-1476.65 -10.58,-1476.65 105.08,385.26 140.11,770.49 -315.15,1611.04 -455.28,840.54 -244.3,1710.04 -244.3,1710.04 -454.44,28.97 -541.93,-1263.8 -541.93,-1263.8 -435.99,1461.88 330.98,2005.38 330.98,2005.38 -175.1,-34.96 -658.05,-741.56 -658.05,-741.56 -62.63,659.37 658.07,1196.8 658.07,1196.8l4307.73 -595.47z"/>
   <path class="fil5" d="M7147.94 11591.66c0,0 1015.61,-1505.99 1225.73,-2136.38 0,0 735.45,-525.36 1540.98,245.11 0,0 560.39,1295.81 840.58,1400.88 0,0 -2381.51,665.48 -3607.29,490.39z"/>
   <path class="fil6" d="M7054.97 11831.67l1040.91 -868.71c0,0 333.9,-384.25 -481.51,-421.97l-1249.34 422.02c0,0 -1033.76,800.23 515.51,943.86l174.43 -75.2z"/>
   <path class="fil7" d="M7122.84 11724.06c90.56,-68.14 147.42,-159.15 153.31,-258.52 10.58,-179.12 -143.7,-436.22 -424.18,-476.02 -165.45,-23.48 -373.7,-16.05 -502.66,68.63 -175.18,115.02 -249.33,390.66 -175.71,548.46 79.89,171.2 319.3,244.52 564.73,239.84 152.58,-2.91 287.77,-49.61 384.51,-122.39z"/>
   <path class="fil3" d="M6918.93 11658.18c0,0 314.19,-472.62 -217.46,-490.6 -159.55,-5.4 -513.1,89.72 -271.79,528.35 0,0 -496.51,-334.56 -0.02,-603.82 0,0 434.88,-150.97 597.98,113.21 0,0 217.45,301.9 -108.71,452.86z"/>
   <path class="fil3" d="M6788.63 11620.44c0,0 108.71,-339.65 -108.73,-377.38 -217.43,-37.74 -222.04,301.91 -165.37,377.38 0,0 50.9,-292.4 135.31,-297.15 84.42,-4.76 138.79,297.15 138.79,297.15z"/>
   <path class="fil6" d="M10740.94 11369.76l-1277.12 -455.1c0,0 -446.19,-245.08 305.86,-562.48l1318.2 -36.1c0,0 1246.71,393.33 -157.28,1063.91l-189.66 -10.23z"/>
   <path class="fil7" d="M10640.03 11292.26c-108.54,-32.61 -193.37,-98.35 -233.24,-189.54 -71.88,-164.4 -16.05,-459 233.37,-593.35 147.13,-79.24 345.08,-144.3 495.35,-109.46 204.17,47.36 369.07,280.32 354.57,453.86 -15.76,188.27 -215.05,339.84 -446.93,420.35 -144.18,50.04 -287.19,52.98 -403.12,18.14z"/>
   <path class="fil3" d="M10808.58 11159.92c0,0 -458.26,-334.78 34.37,-535.52 147.82,-60.25 512.46,-93.28 437.73,401.75 0,0 350.17,-485.63 -208.81,-566.57 0,0 -460.24,8.75 -521.91,313.01 0,0 -99.62,358.49 258.62,387.33z"/>
   <path class="fil3" d="M10917.79 11079.46c0,0 -219.46,-281.1 -28.49,-391.7 190.97,-110.62 312.74,206.49 285.68,296.9 0,0 -148.9,-256.76 -229.74,-232.03 -80.85,24.75 -27.45,326.83 -27.45,326.83z"/>
   <path class="fil8" d="M8410.89 9511.26c-197.56,592.74 -1152.49,2008.75 -1152.49,2008.75 1152.54,164.63 3391.78,-461.09 3391.78,-461.09l0 0c-263.45,-98.77 -790.36,-1317.19 -790.36,-1317.19l0 0c-320.45,-306.51 -629.05,-394.91 -878.54,-394.89l0 0c-340.18,0.02 -570.39,164.42 -570.39,164.42l0 0z"/>
   <path class="fil1 str3" d="M7258.39 11520.02c0,0 954.93,-1416.02 1152.51,-2008.76 0,0 691.52,-493.98 1448.92,230.47 0,0 526.92,1218.4 790.35,1317.19 0,0 -2239.22,625.73 -3391.78,461.1z"/>
   <path class="fil9" d="M7422.42 11618.73c0,0 68.4,89.61 228.02,-179.22 159.6,-268.82 980.45,-1971.41 980.45,-1971.41 0,0 159.62,-67.21 91.22,44.8 -68.42,112.02 -1000.36,2112.1 -967.62,2120.17 32.75,8.06 237.97,-260.76 876.4,-1560.11 0,0 205.22,-592.6 444.65,-576.32 239.41,16.26 513.02,150.67 513.02,150.67 0,0 -752.45,1725 -684.05,1792.2 68.42,67.2 729.66,-1433.76 820.86,-1680.18 91.21,-246.43 159.61,89.61 159.61,89.61l-684.03 1500.96 91.2 -22.4 638.43 -1366.54 91.22 201.6 -592.85 1209.75 114.02 -22.41 530.62 -1045.59 62.21 149.5 -410.43 873.69 159.61 -67.2 342.64 -719.62 113.4 181.95 -296.42 537.67 205.2 -44.82 91.22 -331.58 159.6 286.79 -91.2 67.21c0,0 -1071.67,291.23 -2029.33,336.02l-91.21 -67.21 843.65 -1724.98 91.22 44.81 -706.86 1635.38 159.62 0 752.44 -1769.8 -353.41 -77.77c0,0 -627.05,929.07 -991.88,1959.57 0,0 -71.22,134.42 -354.83,145.62 -283.61,11.21 -329.21,33.61 -306.41,-100.81z"/>
   <polygon class="fil10" points="5729.46,11731.76 12313.58,10884.61 12222.38,11226.62 5883.58,12058.52 "/>
   <g>
    <image x="2094.47" y="14286.65" width="14452.45" height="2027.88" xlink:href="LOGO_Images\LOGO_ImgID1.png"/>
   </g>
   <g>
   </g>
   <path class="fil3" d="M13246.35 16582.01c-187.86,25.7 -281.75,39.32 -469.48,67.73 17.83,-32.2 31.48,-82.28 40.94,-150.23 9.44,-67.95 13.07,-123.71 10.86,-167.27 -6.17,-122.51 -9.27,-183.77 -15.45,-306.28 -1.15,-22.85 -8.95,-49.55 -23.35,-80.13 -14.42,-30.58 -31.68,-51.92 -51.74,-63.98 18.59,-17.2 33.43,-43.35 44.55,-78.46 11.11,-35.13 16.12,-63.39 15.04,-84.81 -6.21,-122.94 -9.3,-184.41 -15.5,-307.35 -2.25,-44.27 -11.41,-98.28 -27.5,-162.07 -16.09,-63.76 -34.54,-108.83 -55.33,-135.17 187.72,-28.4 281.61,-42.03 469.48,-67.73 -17.85,31.92 -31.52,81.62 -40.99,149.06 -9.48,67.47 -13.09,123.32 -10.86,167.6 6.2,122.94 9.31,184.41 15.51,307.36 1.08,21.41 8.85,47.84 23.32,79.26 14.45,31.44 31.71,52.96 51.77,64.58 -18.59,17.64 -33.45,43.6 -44.59,77.86 -11.15,34.27 -16.14,62.83 -15,85.66 6.19,122.52 9.28,183.77 15.46,306.29 2.2,43.56 11.35,97.47 27.47,161.75 16.11,64.26 34.58,109.71 55.39,136.33z"/>
   <path class="fil3" d="M3624.01 17615.37c41.28,-4.17 74.62,-19.06 100.08,-44.58 25.43,-25.51 43.55,-58.22 54.4,-98.12 10.81,-39.89 14.42,-83.5 10.81,-130.77 -0.84,-11.04 -1.26,-16.55 -2.11,-27.59 -1.6,-21 -10.43,-45.7 -26.46,-74.1 -16.03,-28.41 -35.59,-48.34 -58.64,-59.81 21,-15.46 37.21,-39.21 48.65,-71.21 11.41,-32.01 16.37,-57.88 14.87,-77.58 -5.06,-66.31 -14.9,-117.89 -29.48,-154.74 -33.25,-81.18 -92.15,-117.19 -176.78,-108.64 -73.9,7.5 -110.85,11.11 -184.79,18.09 8.7,113.86 13.04,170.79 21.74,284.67 3.08,22.2 12.44,46.95 28.02,74.23 15.61,27.28 34.58,46.49 56.91,57.54 -20.28,15.85 -36.03,38.7 -47.27,68.54 -11.25,29.85 -16.72,56 -16.39,78.44 8.67,113.49 13,170.22 21.65,283.7 73.95,-6.97 110.89,-10.59 184.79,-18.07zm21.57 282.71c-251.39,25.47 -377.19,36.8 -629.05,56.02 19.29,-28.55 33.7,-73.76 43.18,-135.62 9.49,-61.84 12.71,-112.83 9.65,-152.88 -8.59,-112.69 -12.89,-169.03 -21.49,-281.73 -1.61,-21.01 -10.62,-45.87 -27.03,-74.65 -16.4,-28.78 -35.83,-49.24 -58.23,-61.41 20.35,-14.74 36.43,-37.98 48.23,-69.61 11.79,-31.64 16.95,-57.35 15.45,-77.04 -8.64,-113.08 -12.95,-169.62 -21.59,-282.7 -3.1,-40.72 -14.03,-90.7 -32.76,-150.03 -18.74,-59.3 -39.83,-101.59 -63.24,-126.87 251.88,-19.23 377.68,-30.57 629.07,-56.03 102.5,-10.38 197.15,-1.19 283.96,27.88 86.79,29.06 157.98,78.08 213.54,147.37 55.56,69.3 87.52,159.02 95.95,269.34 2.05,26.8 3.06,40.19 5.11,66.99 3.77,22.09 13.23,45.97 28.34,71.62 15.13,25.67 33.46,43.15 54.96,52.43 -19.65,15.02 -34.99,36.61 -46,64.8 -11.03,28.18 -16.66,54.2 -16.92,78.1 2.03,26.79 3.06,40.18 5.11,66.98 8.41,110.32 -9.41,206.12 -53.48,287.21 -44.08,81.1 -106.59,145.54 -187.54,192.94 -80.99,47.46 -172.7,76.51 -275.22,86.89z"/>
   <path class="fil3" d="M5341.22 17635.73c-333.69,53.53 -667.4,102.77 -1003,147.32 17.08,-30.89 29.53,-79.29 37.32,-145.12 7.76,-65.8 10,-119.92 6.72,-162.26 -9.27,-119.06 -13.89,-178.6 -23.14,-297.67 -1.74,-22.2 -10.22,-48.24 -25.43,-78.18 -15.24,-29.93 -33.06,-50.95 -53.51,-63.07 18.22,-16.32 32.48,-41.46 42.75,-75.38 10.24,-33.9 14.56,-61.28 12.95,-82.1 -9.3,-119.49 -13.94,-179.22 -23.22,-298.72 -3.35,-43.02 -13.89,-95.61 -31.61,-157.81 -17.73,-62.18 -37.39,-106.27 -58.89,-132.26 335.62,-44.57 669.31,-93.81 1003.01,-147.34 -38.34,157.7 -57.49,236.5 -95.83,394 -26.52,-17.51 -64.88,-29.47 -115.09,-35.97 -50.21,-6.53 -94.59,-6.87 -133.13,-1.01 -93.63,14.26 -140.47,21.21 -234.17,34.65 9.29,119.5 13.93,179.22 23.22,298.72 26.89,-3.87 40.33,-5.81 67.19,-9.73 38.56,-5.64 85.91,-19.84 142,-42.72 56.08,-22.88 95.73,-47.13 118.92,-72.52 13.92,179.03 20.88,268.54 34.8,447.57 -26.58,-18.33 -69.01,-29.82 -127.26,-34.69 -58.25,-4.87 -106.67,-4.54 -145.23,1.08 -26.87,3.93 -40.31,5.88 -67.19,9.74 9.27,119.07 13.89,178.61 23.14,297.67 93.7,-13.44 140.54,-20.39 234.17,-34.65 38.55,-5.86 81.84,-19.56 129.86,-41.15 48.01,-21.58 83.61,-45.18 106.8,-70.7 61.55,141.02 92.31,211.48 153.85,352.3z"/>
   <path class="fil3" d="M7392.8 17385.71c-201.16,24.2 -301.74,36.03 -502.88,58.7 21.37,-32.47 38.72,-83.42 52.08,-152.78 13.36,-69.37 20.05,-126.46 20.05,-171.21l0 -396.14c-57.7,165.03 -86.55,247.51 -144.25,412.4 -115,12.81 -172.51,19.08 -287.49,31.24 -57.3,-152.4 -85.95,-228.64 -143.25,-381.22l0 396.14c0,44.75 6.83,100.37 20.53,166.81 13.68,66.45 30.87,113.65 51.6,141.55 -201.16,20.96 -301.74,30.94 -502.88,49.47 20.69,-31.97 37.9,-82.56 51.59,-151.69 13.68,-69.11 20.53,-126.08 20.53,-170.83l0 -314.71c0,-23.48 -6.85,-51.26 -20.53,-83.35 -13.69,-32.1 -30.9,-54.9 -51.59,-68.41 20.69,-16.58 37.9,-42.56 51.59,-77.95 13.68,-35.38 20.53,-64.11 20.53,-86.11l0 -315.8c0,-45.51 -6.83,-101.33 -20.53,-167.56 -13.68,-66.18 -30.9,-113.39 -51.59,-141.56 172.3,-15.87 258.45,-24.31 430.75,-42 95.74,246.27 191.59,492.53 287.49,738.77 95.91,-267.04 191.75,-534.12 287.5,-801.2 172.29,-19.64 258.45,-29.79 430.75,-50.53 -21.38,32.65 -38.74,83.52 -52.1,152.59 -13.37,69.12 -20.02,126.38 -20.02,171.88l0 315.81c0,21.99 6.65,49.27 20.02,81.77 13.36,32.52 30.72,54.83 52.1,66.92 -21.38,17.98 -38.74,44.45 -52.1,79.46 -13.37,34.98 -20.02,64.19 -20.02,87.66l0 314.71c0,44.75 6.65,100.28 20.02,166.51 13.36,66.27 30.72,113.17 52.1,140.66z"/>
   <path class="fil3" d="M8672.57 17156.6c-380.61,44.3 -761.38,87.77 -1142.62,129.76 21.97,-31.46 40.2,-80.85 54.74,-148.09 14.52,-67.24 21.78,-122.53 21.78,-165.84l0 -304.52c0,-22.72 -7.26,-49.42 -21.78,-80.15 -14.54,-30.71 -32.77,-52.33 -54.74,-64.85 21.97,-16.58 40.2,-42.18 54.74,-76.77 14.52,-34.59 21.78,-62.55 21.78,-83.84l0 -305.58c0,-44.02 -7.26,-97.87 -21.78,-161.62 -14.54,-63.71 -32.77,-108.94 -54.74,-135.65 381.24,-42.01 762.01,-85.49 1142.62,-129.78 -56.97,159.57 -85.46,239.35 -142.42,398.88 -28.36,-18.69 -70.53,-32.08 -126.49,-40.13 -56,-8.06 -105.95,-9.58 -149.87,-4.52 -106.72,12.28 -160.07,18.37 -266.79,30.44l0 305.6c30.62,-3.46 45.91,-5.2 76.52,-8.68 43.93,-5 98.49,-18.5 163.7,-40.54 65.16,-22.03 111.94,-45.73 140.29,-71.02l0 457.86c-28.35,-19.41 -75.11,-32.3 -140.29,-38.65 -65.2,-6.35 -119.77,-7.04 -163.7,-2.05 -30.61,3.48 -45.9,5.22 -76.52,8.69l0 304.52c106.72,-12.07 160.07,-18.16 266.79,-30.44 43.92,-5.06 93.87,-17.92 149.87,-38.6 55.96,-20.68 98.13,-43.69 126.49,-69 56.96,145.84 85.45,218.77 142.42,364.57z"/>
   <path class="fil3" d="M10723.43 16480.11c49.45,-4.29 90.76,-19.79 123.94,-46.55 33.14,-26.73 57.95,-61.07 74.35,-103.01 16.4,-41.93 24.81,-87.85 25.22,-137.77 0.07,-11.65 0.12,-17.48 0.22,-29.13 0.18,-22.17 -7.85,-48.34 -24.07,-78.49 -16.24,-30.15 -37.5,-51.37 -63.75,-63.68 26.48,-16.11 48.1,-41.01 64.86,-74.65 16.74,-33.65 25.2,-60.88 25.38,-81.68 0.56,-70.01 -6.42,-124.5 -20.93,-163.47 -30.62,-86.08 -96.6,-124.78 -197.99,-116 -101.4,8.77 -168.51,59.01 -201.38,150.57 -14.35,42.16 -24.23,99.9 -22.37,169.3 0.62,23.01 10.11,49.53 25.93,78.27 15.84,28.75 36.05,48.99 60.67,60.69 -24.85,16.71 -45.42,40.86 -61.75,72.44 -16.3,31.57 -25.41,59.22 -27.23,82.94 -0.1,12.48 -0.15,18.72 -0.26,31.21 -0.4,49.92 7.46,94.42 23.64,133.55 16.15,39.12 40.41,69.2 72.78,90.28 32.37,21.09 73.29,29.47 122.74,25.18zm25.15 558.02c0.53,-5.45 0.81,-8.17 1.34,-13.62 0.27,-33.29 -18.18,-72.3 -54.66,-116.87 -43.33,-52.93 -91.58,-115.71 -127.47,-127.13 -50.64,-16.11 -186.36,-27.44 -262.66,-64.66 -76.28,-37.21 -136.41,-90.22 -180.34,-159.06 -43.92,-68.82 -65.48,-153.14 -64.68,-252.99 0.2,-24.96 0.31,-37.43 0.5,-62.39 0.18,-22.19 -7.84,-48.31 -24.07,-78.39 -16.26,-30.07 -37.48,-51.21 -63.75,-63.39 26.49,-16.24 48.1,-41.22 64.86,-74.94 16.74,-33.73 25.2,-60.99 25.38,-81.79 0.19,-24.95 0.31,-37.44 0.5,-62.39 0.95,-117.87 31.84,-219.05 92.65,-303.46 60.79,-84.43 141.65,-151.21 242.57,-200.34 100.88,-49.08 212.32,-78.97 334.32,-89.54 122.83,-10.63 234.38,-0.05 334.6,31.68 100.21,31.74 179.69,84.75 238.41,158.93 58.72,74.16 87.59,170.23 86.64,288.1 -0.24,28.28 -0.35,42.42 -0.58,70.72 2.29,23.38 11.54,48.61 27.81,75.68 16.24,27.1 35.86,46.31 58.85,57.61 -23.2,15.03 -43.15,37.62 -59.86,67.72 -16.74,30.12 -26.41,57.07 -29.07,80.84 -0.23,28.28 -0.34,42.43 -0.58,70.72 -0.85,106.79 -26.94,200.03 -78.25,279.74 -51.3,79.76 -120.39,144.72 -207.31,194.95 75.46,40.09 133.34,64.77 173.62,73.9 -211.5,119.71 -317.25,179.83 -528.77,300.37z"/>
   <path class="fil3" d="M12110.06 16738.77c-101.42,11.66 -194.36,1.62 -278.77,-30.2 -84.41,-31.84 -151.81,-86.01 -202.11,-162.69 -50.32,-76.67 -76.18,-175.69 -77.62,-297.08 -0.3,-26.01 -0.47,-39.03 -0.78,-65.04 -0.25,-23.12 -7.61,-50.24 -22.05,-81.39 -14.44,-31.12 -32.37,-52.96 -53.77,-65.48 21.06,-17.11 38.41,-43.15 52.07,-78.13 13.65,-34.98 20.36,-63.7 20.1,-86.09 -1.48,-124.45 -2.21,-186.66 -3.68,-311.09 -0.53,-44.82 -8.21,-99.58 -23.03,-164.33 -14.85,-64.71 -33.06,-110.59 -54.65,-137.55 206.38,-25.83 309.57,-38.43 515.97,-62.58 -20.91,32.11 -38,82.26 -51.25,150.39 -13.26,68.15 -19.62,124.62 -19.09,169.43 1.48,125.29 2.22,187.96 3.69,313.25 1.66,23.69 9.35,50.63 23.09,80.84 13.73,30.25 31.31,51.32 52.72,63.28 -21.06,17.67 -38.09,43 -51.08,76.02 -12.98,33.02 -20.03,61.89 -21.1,86.63 0.14,13 0.22,19.51 0.38,32.51 0.61,52.03 8.03,98.37 22.22,139.03 14.22,40.65 34.98,71.86 62.36,93.63 27.34,21.77 61.6,30.26 102.71,25.54 41.12,-4.74 75.05,-21.06 101.83,-49.07 26.77,-27.98 46.76,-63.87 59.96,-107.67 13.21,-43.81 19.51,-91.72 18.9,-143.75 -0.15,-12.14 -0.23,-18.21 -0.37,-30.35 -0.28,-23.12 -7.45,-50.35 -21.55,-81.71 -14.09,-31.35 -32.19,-53.4 -54.3,-66.1 21.76,-16.91 39.29,-42.93 52.6,-78.08 13.32,-35.13 19.83,-63.53 19.58,-85.2 -1.47,-124.45 -2.2,-186.66 -3.66,-311.1 -0.54,-44.81 -7.87,-99.69 -22.01,-164.71 -14.15,-64.97 -32.37,-111.05 -54.64,-138.21 206.39,-23.28 309.6,-34.43 516.04,-55.36 -21.59,31.84 -38.85,81.73 -51.76,149.61 -12.94,67.92 -19.12,124.25 -18.59,169.06 1.5,127.91 2.25,191.86 3.77,319.77 2.35,24.36 10.23,50.87 23.59,79.5 13.37,28.65 30.42,48.44 51.12,59.36 -20.4,15.81 -36.94,39.42 -49.59,70.71 -12.68,31.33 -19.88,59.41 -21.66,84.17 0.36,29.49 0.53,44.23 0.87,73.7 1.44,121.42 -22.2,226.04 -70.91,313.98 -48.71,87.98 -114.63,157.38 -197.73,208.42 -83.13,51.06 -175.73,82.38 -277.82,94.13z"/>
   <path class="fil3" d="M14276.99 16461.27c-222.8,32.48 -334.11,49.71 -556.58,85.69 20.08,-33.74 34.53,-85.72 43.34,-155.95 8.8,-70.2 11.12,-127.68 6.93,-172.39 -11.75,-125.76 -17.62,-188.65 -29.39,-314.42 -2.19,-23.44 -12.42,-50.64 -30.67,-81.56 -18.28,-30.94 -39.58,-52.26 -63.91,-63.94 21.52,-18.35 38.27,-45.77 50.24,-82.29 11.94,-36.5 16.9,-65.76 14.86,-87.74 -11.81,-126.2 -17.71,-189.31 -29.51,-315.51 -31.9,5.09 -47.87,7.65 -79.78,12.83 -45.04,7.28 -96.24,23.25 -153.52,48.01 -57.3,24.75 -99.66,51.08 -127.04,78.78 -74.1,-147.82 -111.15,-221.68 -185.24,-369.31 475.57,-80.33 951.25,-153.87 1430.34,-219.48 -45.23,165.77 -67.85,248.74 -113.06,414.8 -30.99,-18.76 -76.44,-31.64 -136.31,-38.43 -59.87,-6.77 -112.72,-6.77 -158.58,-0.08 -31.96,4.66 -47.94,7.01 -79.88,11.75 11.8,126.21 17.7,189.31 29.49,315.51 2.06,21.98 12.07,48.94 30.05,80.83 17.99,31.88 39.48,53.44 64.53,64.64 -22.24,18.84 -39.18,46.04 -50.85,81.58 -11.68,35.53 -16.42,65.04 -14.22,88.48 11.74,125.76 17.62,188.65 29.38,314.42 4.18,44.71 16.83,99.88 37.98,165.48 21.11,65.61 44.91,111.71 71.4,138.3z"/>
   <path class="fil3" d="M16036.27 16202.68c-428.21,49.25 -853.37,104.7 -1279.48,166.15 21.33,-32.96 36.51,-83.72 45.54,-152.25 9,-68.53 11.15,-124.6 6.38,-168.22 -13.4,-122.7 -20.1,-184.06 -33.49,-306.76 -2.5,-22.87 -13.65,-49.39 -33.43,-79.54 -19.79,-30.14 -42.78,-50.92 -68.97,-62.26 22.98,-17.97 40.79,-44.76 53.38,-80.39 12.61,-35.64 17.76,-64.19 15.41,-85.64 -13.44,-123.12 -20.16,-184.69 -33.59,-307.81 -4.86,-44.34 -18.99,-98.2 -42.4,-161.62 -23.43,-63.37 -49,-107.92 -76.75,-133.57 426.13,-61.46 851.28,-116.9 1279.49,-166.15 -47.12,160.99 -70.68,241.57 -117.76,402.93 -34.22,-18.51 -83.53,-31.49 -147.87,-38.66 -64.35,-7.15 -121.14,-7.6 -170.36,-1.44 -119.56,14.91 -179.31,22.66 -298.76,38.7 13.45,123.12 20.16,184.69 33.62,307.81 34.25,-4.59 51.39,-6.88 85.65,-11.38 49.2,-6.47 109.49,-21.75 180.92,-45.58 71.4,-23.83 121.85,-48.61 151.21,-74.62 20.14,184.48 30.21,276.73 50.35,461.2 -34.29,-19.04 -88.72,-31.09 -163.28,-35.86 -74.55,-4.74 -136.39,-3.79 -185.59,2.69 -34.27,4.51 -51.4,6.78 -85.67,11.37 13.4,122.71 20.09,184.07 33.5,306.77 119.45,-16.03 179.19,-23.79 298.75,-38.72 49.21,-6.14 104.42,-20.16 165.63,-41.96 61.17,-21.77 106.48,-45.47 135.85,-71.28 80.67,146.25 121.01,219.47 201.72,366.09z"/>
   <path class="fil3" d="M10065.69 16740.85c5.85,66.11 -7.01,126.09 -39.63,180.72 -13.84,23.2 -32.25,46.09 -56.23,70.19 -23.98,24.09 -53.83,45.87 -90.69,65.44 -36.87,19.57 -80.74,36.92 -132.81,51.45 -52.01,15.23 -113.52,25.63 -182.23,31.71l-138.54 12.26c-138.54,12.26 -244.97,2.54 -321.48,-28.26 -76.51,-30.81 -131.93,-67.02 -167.39,-108.54 -43.97,-47.85 -69.47,-105.14 -75.32,-171.26l-3.05 -34.47c-0.74,-8.44 5.4,-16.07 18.47,-22.18 15.34,-6.33 38.37,-15.45 70.16,-28.19 30.67,-12.63 62.4,-26.07 96.26,-41.12 32.73,-14.95 65.59,-28.49 98.5,-41.32 31.8,-12.74 56.96,-23.47 74.42,-31.4 7.57,-4.22 14.34,-4.81 20.28,-1.8 8.01,0.72 11.75,4.64 12.31,10.97l15.62 176.54c1.93,21.81 9,37.49 21.26,47.74 11.2,11.06 24.39,19.11 38.46,24.24 12.96,5.24 29.1,8.06 46.12,7.97 17.08,0.62 31.79,0.03 41.92,-0.86l122.78 -10.87c13.51,-1.19 28.09,-3.2 43.67,-6.7 15.65,-2.8 29.92,-8.31 42.87,-15.85 12.96,-7.52 24.54,-17.76 33.62,-30.61 9.14,-12.15 13.34,-28.83 11.41,-50.63l-13.82 -156.15c-1.61,-18.29 -1.98,-35.27 -2.15,-50.14 -0.19,-14.87 -3.75,-29.44 -10.62,-43.01 -6.88,-13.57 -19.45,-27.34 -37.65,-40.62 -18.21,-13.28 -48.86,-26.16 -89.78,-39.55 -10.69,-5.43 -27.9,-7.46 -51.56,-5.36 -13.32,3.31 -29.03,5.4 -45.86,7.6 -16.83,2.2 -33.55,5.8 -49,10.72 -18.96,3.8 -37.98,6.9 -59.2,10.9 0,0 -5.63,0.5 -15.77,1.4 -5.94,-3.02 -8.5,-6.34 -8.82,-9.86l-20.55 -52.76c-7.81,-24.12 -28.64,-41.42 -64.74,-51.69 -76.83,-21.56 -138.89,-43 -187.25,-63.53 -48.36,-20.54 -86.83,-44.78 -115.42,-72.73 -28.51,-27.25 -48.39,-59.52 -60.77,-96.7 -12.37,-37.19 -20.98,-83.21 -25.83,-138.07l-10.95 -123.79c-5.85,-66.12 6.94,-126.8 39.56,-181.43 28.75,-47.2 78.08,-92.68 149.18,-135.83 70.04,-42.35 174.3,-70 312.84,-82.26l86.73 -7.68c68.71,-6.08 131.09,-6.63 184.9,-1.47 53.81,5.16 100.05,14.54 139.77,27.33 39.79,13.5 73.02,29.69 100.72,47.8 26.59,18.2 48.79,38.21 66.61,60.03 41.72,48.05 66.09,105.45 71.94,171.56l3.74 42.2c0.55,6.33 -4.46,13.87 -14.03,21.09 -15.33,6.32 -38.3,16.15 -67.84,28.69 -29.55,12.54 -62.4,26.08 -96.38,39.72 -35.11,13.73 -67.91,27.98 -98.52,41.32 -30.6,13.34 -56.82,24.87 -77.66,33.1 0,0 -6.76,0.6 -19.15,1.69 -5.94,-3.02 -8.57,-7.04 -9,-11.96l-16 -180.76c-1.8,-20.4 -8.87,-36.08 -20.12,-47.84 -12.32,-10.97 -25.52,-19.01 -40.67,-23.34 -15.13,-4.33 -31.22,-6.45 -48.29,-7.07 -17.02,0.09 -32.86,0.78 -46.38,1.97l-70.95 6.28c-13.52,1.2 -29.23,3.3 -46,6.2 -16.7,3.61 -32.17,8.52 -46.31,15.44 -14.14,6.92 -26.84,17.26 -35.93,30.11 -9.02,13.56 -13.22,30.24 -11.41,50.63l11.14 125.91c2.18,24.62 4.1,46.42 4.59,64.8 0.5,18.39 5.44,35.68 14.75,51.15 9.38,16.19 26.57,30.97 51.6,44.35 25.08,14.09 61.56,28.58 111.73,43.99 12.83,3.83 27.72,5.35 43.49,3.95 13.33,-3.31 30.1,-6.21 50.18,-10.11 19.02,-3.1 38.06,-6.2 57.02,-10 21.09,-5.42 43.43,-9.52 66.95,-13.02 5.63,-0.5 10.21,-0.19 15.96,0.72 2.44,1.91 3.62,2.51 3.69,3.22 0.06,0.69 1.31,2.01 4.88,3.81 2.81,6.14 4.56,13.07 5.12,19.4 3.94,6.03 6.81,12.86 8.62,20.51 1.82,7.63 3.62,15.27 7.75,23.41 9.94,22.52 31.9,39.71 64.74,51.69 54.86,17.12 101.79,34.23 143.08,51.85 40.22,18.42 73.88,39.54 102.21,64.68 27.2,25.24 49.09,54.49 65.59,87.06 15.38,32.66 25.69,72.16 29.79,118.58l14.75 166.7z"/>
   <g>
   </g>
   <path class="fil11" d="M13173.63 16534.96c-187.87,25.71 -281.76,39.32 -469.5,67.73 17.84,-32.19 31.49,-82.27 40.95,-150.22 9.44,-67.95 13.07,-123.72 10.86,-167.28 -6.17,-122.51 -9.27,-183.77 -15.45,-306.28 -1.15,-22.84 -8.95,-49.54 -23.35,-80.13 -14.43,-30.58 -31.68,-51.91 -51.74,-63.98 18.59,-17.19 33.43,-43.35 44.55,-78.46 11.1,-35.12 16.11,-63.38 15.04,-84.8 -6.21,-122.95 -9.3,-184.41 -15.51,-307.36 -2.24,-44.26 -11.41,-98.27 -27.48,-162.07 -16.1,-63.76 -34.55,-108.82 -55.34,-135.17 187.72,-28.39 281.61,-42.02 469.48,-67.72 -17.86,31.92 -31.52,81.61 -41,149.06 -9.47,67.47 -13.08,123.31 -10.86,167.6 6.21,122.94 9.32,184.41 15.52,307.35 1.08,21.42 8.85,47.84 23.32,79.26 14.45,31.44 31.71,52.97 51.77,64.58 -18.6,17.65 -33.45,43.61 -44.59,77.87 -11.15,34.27 -16.14,62.82 -15,85.65 6.19,122.53 9.28,183.77 15.45,306.3 2.21,43.55 11.37,97.46 27.48,161.74 16.11,64.26 34.58,109.72 55.4,136.33z"/>
   <path class="fil11" d="M4047.28 15608.12c-405.7,77.35 -808.98,153.71 -1219.11,201.08 42.64,-73.62 166.92,-207.91 182.41,-364.83 15.48,-156.86 42.24,-1160.38 0,-1231.28 -42.24,-70.88 -173.35,-176.49 -228.02,-205.22 46.73,-38.94 233.83,-132.88 228.02,-182.4 -27.85,-236.93 61.94,-1122.7 -22.81,-1254.09 -102.83,-159.47 -211.08,-312.58 -228.02,-364.82 501.64,205.21 1573.31,68.41 2211.75,-342.03 -72.75,323.23 0,752.45 45.62,1140.09 -28.51,-14.41 -104.56,-161.78 -319.23,-182.42 -315.84,-30.39 -813.68,69.46 -934.86,91.2 36.58,311.21 -13.78,350.03 22.8,661.25 70.03,-12.68 357.79,19.24 501.64,-45.61 143.81,-64.84 304.7,-230.32 364.81,-296.42 -13.55,354.8 -40.7,1139.96 0,1140.09 0,0 -41.31,-172.93 -250.81,-182.42 -198.87,-9.02 -495.25,29.49 -615.64,68.4 22.81,194.17 -19.87,477.02 2.96,671.18 11.83,100.71 -2.96,423.29 -2.96,423.29 0,0 203.3,196.85 261.45,254.96z"/>
   <path class="fil11" d="M6498.12 15266.5c-184.98,35.17 -396.93,30.2 -586.92,-36.63 -148.92,-52.38 -329.05,-200.93 -422.04,-356.87 -116.17,-194.86 -140.26,-434.69 -156.21,-672.4l0 -147.7c0,-52.49 -14.84,-113.98 -44.49,-184.45 -29.63,-70.44 -66.92,-119.83 -111.73,-148.22 44.81,-38.9 82.07,-98.24 111.73,-177.94 29.63,-79.65 44.49,-144.98 44.49,-195.87l0 -706.48c0,-101.74 -14.84,-225.98 -44.49,-372.77 -29.63,-146.76 -66.92,-250.69 -111.73,-311.93 363.96,-48.86 727.08,-108.77 1089.24,-175.22 -44.86,75.54 -82.12,191.38 -111.77,347.66 -29.66,156.33 -44.47,285.28 -44.47,387.03l0 711.39c2.89,53.64 18.45,114.1 46.65,181.23 28.22,67.17 64.73,113.1 109.59,137.69 -44.86,42.68 -81.37,102.18 -109.59,178.63 -28.2,76.45 -43.76,142.82 -46.65,199.09l0 73.85c0,118.17 14.47,222.71 43.4,313.51 28.92,90.78 71.94,159.38 129.11,205.5 57.12,46.11 129.1,61.01 215.88,44.42 86.79,-16.6 158.75,-59.01 215.89,-126.94 57.14,-67.9 100.18,-152.9 129.11,-254.72 28.93,-101.82 43.4,-211.85 43.4,-330.02l0 -68.92c0,-52.5 -14.47,-113.19 -43.4,-182.01 -28.92,-68.8 -66.56,-115.83 -112.84,-141.13 46.28,-41.99 83.91,-104.12 112.84,-186.27 28.93,-82.11 43.4,-147.84 43.4,-197.08l0 -706.48c0,-101.74 -14.1,-225.24 -42.31,-370.54 -28.2,-145.26 -65.48,-246.92 -111.75,-305.04 363.72,-71.96 726.57,-150.47 1089.24,-230.28 -46.31,77.57 -83.9,194.99 -112.83,352.3 -28.95,157.4 -43.39,286.9 -43.39,388.64l0 726.17c4.33,54.87 20.27,113.36 47.74,175.38 27.46,62.04 62.92,103.06 106.32,122.99 -43.4,40.82 -78.86,98.27 -106.32,172.4 -27.5,74.16 -43.41,139.6 -47.74,196.34l0 167.38c-17.05,258.29 -47.07,508.53 -157.32,729.7 -95.66,191.93 -261.27,406.8 -422.02,514.27 -195.4,130.66 -378.37,220.47 -588.02,260.34z"/>
   <path class="fil11" d="M10253.39 14714.22c-831.44,101.06 -1662.25,213.39 -2493.71,314.29 54.16,-74.7 104.18,-191.86 149.98,-351.36 45.79,-159.44 73.36,-290.57 82.67,-393.22 21.84,-240.63 43.67,-481.26 65.51,-721.88 4.88,-53.84 -5.06,-117.13 -29.78,-189.83 -24.74,-72.69 -59.51,-123.85 -104.19,-153.46 50.93,-39.38 95.86,-100.16 134.64,-182.24 38.77,-82.07 60.46,-148.41 65.04,-198.89 21.91,-241.45 43.81,-482.92 65.72,-724.4 9.46,-104.31 5.37,-231.95 -12.26,-382.93 -17.63,-150.91 -47.33,-258 -88.96,-321.3 831.45,-100.91 1662.27,-213.22 2493.71,-314.28 -131.03,314.65 -262,629.34 -392.94,944.05 -57.13,-44.47 -145.24,-76.37 -264.24,-95.4 -119.03,-19.02 -226.55,-22.31 -322.42,-9.98 -194.15,24.98 -388.28,50.1 -582.43,75.12 -21.9,241.48 -43.81,482.95 -65.71,724.42 66.82,-8.61 100.24,-12.92 167.06,-21.56 95.91,-12.37 216.56,-45.02 362.03,-97.84 145.42,-52.8 251.45,-109.18 318.04,-169.22 -32.82,361.79 -65.64,723.56 -98.46,1085.35 -56.98,-45.95 -155.14,-76.28 -294.46,-90.76 -139.36,-14.49 -256.97,-15.5 -352.87,-3.11 -66.83,8.62 -100.24,12.94 -167.07,21.54 -21.83,240.63 -43.65,481.25 -65.48,721.89 194.13,-25.03 388.26,-50.15 582.41,-75.12 95.88,-12.33 206.46,-43.11 331.71,-92.25 125.2,-49.1 221.11,-103.48 287.7,-163.32 76.33,288.54 152.57,577.09 228.76,865.69z"/>
   <path class="fil11" d="M12792.35 14383.37c-177.65,27.78 -355.17,57.81 -532.37,89.81 -62.1,-31.1 -110.2,-91.59 -144.19,-181.68 -129.25,155.35 -339.03,282.37 -514.61,307.3 -199.58,28.32 -401.78,44.83 -600.02,-21.93 -179.28,-60.39 -325.07,-176.1 -432.55,-342.6 -126.05,-195.28 -144.58,-439.76 -160.81,-680.38l0 -169.88c-4.43,-56.46 -20.72,-117.08 -48.79,-181.74 -28.08,-64.66 -64.34,-108.04 -108.7,-130.15 44.36,-43.83 80.59,-103.53 108.7,-179.19 28.07,-75.62 44.36,-142.67 48.79,-201.15l0 -169.89c17.29,-266 43.8,-522.6 159.72,-752.02 109.29,-216.32 263.99,-414.45 439.2,-534.9 205.99,-141.61 397.12,-214.98 634.39,-280.28 383.14,-75.35 766.62,-145.07 1151.24,-207.43 -99.21,319.61 -198.29,639.28 -297.24,959.01 -57.67,-42.55 -145.31,-71.06 -262.86,-84.5 -117.53,-13.43 -222.2,-11.13 -313.87,6.4 -77.18,14.76 -115.79,22.27 -192.98,37.51 -130.15,25.68 -233.28,75.89 -309.44,149.92 -76.17,73.99 -130.52,164.42 -163.04,270.97 -32.54,106.59 -48.79,219.9 -48.79,339.9l0 73.54c0,50.71 14.78,112.26 44.36,184.64 29.57,72.36 68,120.55 115.34,144.55 -47.34,45.31 -85.77,109.59 -115.34,192.68 -29.59,83.16 -44.36,151.77 -44.36,205.85l0 71.01c0,121.7 14.78,228.9 44.36,321.57 29.57,92.63 73.54,162.05 131.97,208.29 58.41,46.25 132,60.3 220.72,42.48 88.72,-17.84 162.68,-61.52 221.83,-131.34 59.12,-69.78 103.12,-156.83 131.97,-261.2 28.84,-104.36 43.24,-217.38 43.24,-339.1 0,-185.93 -53.22,-336.59 -159.69,-451.21 370.25,-72.26 741.5,-137.21 1113.52,-193.12 -45.86,77.87 -83.94,196.61 -114.23,355.95 -30.31,159.36 -45.47,291.54 -45.47,396.34 0,378.66 0,757.3 0,1135.97z"/>
   <path class="fil11" d="M14393.02 13493.22c88.9,-8.4 163.13,-44.05 222.65,-107.57 59.51,-63.49 104.35,-145.94 134.5,-247.65 30.14,-101.72 45.22,-213.75 45.22,-336.26l0 -71.47c0,-54.42 -14.7,-119.35 -44.09,-194.66 -29.39,-75.28 -68.19,-128.97 -116.42,-160.87 48.23,-37.85 87.03,-97.33 116.42,-178.55 29.39,-81.24 44.09,-147.33 44.09,-198.37 0,-171.83 -12.81,-306.22 -38.43,-403.07 -58.79,-213.53 -180.09,-313.7 -363.94,-296.34 -185.36,17.5 -307.42,140.55 -366.2,365.09 -27.12,103.54 -45.05,247.79 -40.71,415.64 1.46,55.74 19.23,121.51 48.6,192.13 29.39,70.65 67.46,120.37 114.17,149.33 -46.71,40.79 -84.78,99.96 -114.17,177.35 -29.37,77.4 -45.59,145.26 -48.6,203.44l0 76.57c0,122.49 15.07,231.73 45.22,327.78 30.15,96.04 75.34,170.03 135.63,222.27 60.27,52.21 135.65,73.75 226.06,65.21zm0 732.44c-197.03,18.58 -417.89,-2.29 -614.88,-79.26 -154.83,-60.52 -340.74,-216.56 -438.52,-379.19 -121.28,-201.76 -146.13,-449.88 -162.76,-696.06l0 -153.12c0,-54.43 -15.47,-118 -46.34,-190.48 -30.86,-72.48 -69.72,-122.86 -116.42,-150.96 46.7,-41.65 85.55,-104.46 116.42,-188.48 30.87,-83.96 46.34,-151.49 46.34,-202.54l0 -153.13c17.45,-263.88 47.49,-521.14 162.76,-745.89 98.16,-191.43 277.33,-395.79 438.52,-502.54 190.4,-126.08 412.16,-199.08 614.88,-218.06 195.59,-18.32 416.95,10.38 611.47,103.19 158.02,75.38 341.36,251.24 438.54,423.81 119.17,211.6 146.77,463.72 163.88,717.91l0 173.55c4.51,57.8 21.47,121.82 50.85,192.15 29.4,70.37 66.7,120.74 111.91,151.35 -45.21,32.34 -82.51,83.18 -111.91,152.35 -29.38,69.15 -46.34,134.45 -50.85,195.78l0 173.52c-17.24,256.56 -45.34,509.2 -163.88,724.03 -99.2,179.8 -279.89,365.68 -438.54,457.94 -191.23,111.21 -410.13,175.15 -611.47,194.13z"/>
   <path class="fil11" d="M3551.28 17525.61c41.28,-4.17 74.62,-19.06 100.08,-44.59 25.42,-25.51 43.55,-58.22 54.4,-98.11 10.81,-39.9 14.42,-83.5 10.81,-130.78 -0.84,-11.04 -1.26,-16.54 -2.11,-27.58 -1.6,-21 -10.43,-45.7 -26.46,-74.11 -16.03,-28.4 -35.6,-48.34 -58.64,-59.81 21,-15.45 37.21,-39.2 48.65,-71.2 11.41,-32.02 16.37,-57.88 14.87,-77.59 -5.06,-66.3 -14.9,-117.88 -29.49,-154.73 -33.24,-81.18 -92.15,-117.19 -176.77,-108.64 -73.9,7.49 -110.84,11.11 -184.79,18.08 8.7,113.87 13.04,170.8 21.74,284.67 3.07,22.21 12.44,46.95 28.02,74.24 15.61,27.27 34.58,46.48 56.91,57.54 -20.29,15.85 -36.03,38.7 -47.28,68.54 -11.24,29.84 -16.7,56 -16.38,78.44 8.66,113.49 13,170.22 21.65,283.69 73.95,-6.96 110.89,-10.59 184.79,-18.06zm21.58 282.7c-251.41,25.48 -377.2,36.81 -629.07,56.03 19.29,-28.55 33.71,-73.77 43.19,-135.63 9.49,-61.84 12.71,-112.82 9.65,-152.88 -8.59,-112.68 -12.89,-169.03 -21.49,-281.72 -1.62,-21.01 -10.62,-45.88 -27.03,-74.65 -16.4,-28.78 -35.83,-49.24 -58.23,-61.41 20.35,-14.75 36.43,-37.98 48.23,-69.61 11.79,-31.64 16.95,-57.35 15.45,-77.04 -8.64,-113.08 -12.95,-169.62 -21.59,-282.7 -3.09,-40.72 -14.04,-90.71 -32.76,-150.03 -18.74,-59.3 -39.83,-101.6 -63.25,-126.88 251.89,-19.22 377.68,-30.57 629.08,-56.02 102.5,-10.38 197.15,-1.2 283.96,27.87 86.79,29.07 157.98,78.09 213.54,147.37 55.55,69.3 87.52,159.02 95.95,269.35 2.05,26.8 3.06,40.19 5.11,66.98 3.77,22.09 13.23,45.97 28.34,71.62 15.13,25.67 33.45,43.16 54.96,52.44 -19.65,15.02 -35,36.61 -46,64.79 -11.04,28.18 -16.66,54.2 -16.92,78.1 2.03,26.8 3.06,40.19 5.11,66.98 8.41,110.33 -9.41,206.12 -53.48,287.22 -44.09,81.1 -106.59,145.54 -187.54,192.94 -80.99,47.46 -172.7,76.5 -275.21,86.88z"/>
   <path class="fil11" d="M5268.48 17545.96c-333.68,53.53 -667.39,102.77 -1002.99,147.32 17.08,-30.88 29.53,-79.29 37.31,-145.11 7.77,-65.81 10.01,-119.93 6.72,-162.26 -9.26,-119.06 -13.89,-178.6 -23.14,-297.68 -1.74,-22.2 -10.21,-48.24 -25.42,-78.17 -15.24,-29.93 -33.07,-50.96 -53.51,-63.07 18.22,-16.33 32.48,-41.46 42.75,-75.38 10.25,-33.9 14.56,-61.28 12.95,-82.1 -9.3,-119.49 -13.94,-179.23 -23.22,-298.72 -3.35,-43.02 -13.89,-95.61 -31.61,-157.81 -17.73,-62.18 -37.38,-106.27 -58.9,-132.26 335.62,-44.57 669.31,-93.81 1003.02,-147.34 -38.33,157.7 -57.49,236.5 -95.83,394 -26.52,-17.51 -64.89,-29.47 -115.09,-35.98 -50.21,-6.53 -94.59,-6.87 -133.13,-1 -93.64,14.26 -140.48,21.21 -234.17,34.64 9.29,119.5 13.93,179.23 23.21,298.73 26.9,-3.87 40.34,-5.82 67.2,-9.73 38.55,-5.65 85.91,-19.84 142,-42.72 56.07,-22.88 95.73,-47.13 118.92,-72.53 13.92,179.04 20.88,268.55 34.8,447.58 -26.58,-18.34 -69.01,-29.83 -127.26,-34.69 -58.25,-4.87 -106.67,-4.55 -145.23,1.08 -26.88,3.93 -40.31,5.88 -67.19,9.73 9.26,119.07 13.89,178.61 23.14,297.67 93.69,-13.43 140.54,-20.38 234.17,-34.64 38.54,-5.87 81.84,-19.56 129.86,-41.15 48.02,-21.58 83.61,-45.18 106.8,-70.7 61.55,141.02 92.31,211.48 153.84,352.29z"/>
   <path class="fil11" d="M7320.07 17295.95c-201.16,24.2 -301.74,36.02 -502.88,58.7 21.37,-32.47 38.72,-83.42 52.08,-152.79 13.36,-69.37 20.04,-126.46 20.04,-171.2l0 -396.15c-57.7,165.04 -86.54,247.52 -144.24,412.41 -115,12.81 -172.51,19.07 -287.49,31.24 -57.3,-152.4 -85.95,-228.65 -143.25,-381.22l0 396.14c0,44.75 6.83,100.37 20.53,166.81 13.68,66.44 30.87,113.64 51.59,141.55 -201.16,20.96 -301.73,30.94 -502.87,49.47 20.68,-31.97 37.89,-82.57 51.59,-151.69 13.68,-69.11 20.53,-126.09 20.53,-170.83l0 -314.71c0,-23.48 -6.85,-51.26 -20.53,-83.36 -13.7,-32.09 -30.91,-54.89 -51.59,-68.4 20.68,-16.58 37.89,-42.57 51.59,-77.95 13.68,-35.38 20.53,-64.12 20.53,-86.11l0 -315.8c0,-45.51 -6.83,-101.34 -20.53,-167.56 -13.68,-66.18 -30.91,-113.39 -51.59,-141.56 172.29,-15.87 258.45,-24.31 430.75,-42.01 95.75,246.28 191.59,492.54 287.49,738.78 95.91,-267.04 191.75,-534.12 287.49,-801.2 172.3,-19.64 258.46,-29.79 430.76,-50.53 -21.38,32.65 -38.74,83.51 -52.09,152.59 -13.38,69.11 -20.03,126.38 -20.03,171.88l0 315.8c0,22 6.65,49.28 20.03,81.78 13.35,32.52 30.71,54.83 52.09,66.92 -21.38,17.98 -38.74,44.45 -52.09,79.45 -13.38,34.98 -20.03,64.2 -20.03,87.67l0 314.71c0,44.75 6.65,100.27 20.03,166.51 13.35,66.26 30.71,113.17 52.09,140.66z"/>
   <path class="fil11" d="M8642.56 17088.2c-380.61,44.3 -761.39,87.77 -1142.62,129.76 21.96,-31.47 40.2,-80.85 54.73,-148.1 14.52,-67.24 21.79,-122.52 21.79,-165.83l0 -304.53c0,-22.71 -7.27,-49.42 -21.79,-80.14 -14.53,-30.71 -32.77,-52.34 -54.73,-64.86 21.96,-16.58 40.2,-42.17 54.73,-76.76 14.52,-34.6 21.79,-62.56 21.79,-83.84l0 -305.59c0,-44.02 -7.27,-97.87 -21.79,-161.61 -14.53,-63.71 -32.77,-108.94 -54.73,-135.66 381.23,-42.01 762.01,-85.48 1142.62,-129.77 -56.98,159.57 -85.47,239.34 -142.43,398.88 -28.36,-18.69 -70.53,-32.08 -126.49,-40.14 -55.99,-8.06 -105.94,-9.57 -149.87,-4.51 -106.72,12.28 -160.06,18.37 -266.78,30.44l0 305.6c30.61,-3.47 45.9,-5.21 76.52,-8.69 43.92,-4.99 98.48,-18.49 163.69,-40.54 65.17,-22.02 111.94,-45.73 140.3,-71.01l0 457.86c-28.36,-19.42 -75.12,-32.31 -140.3,-38.66 -65.19,-6.35 -119.77,-7.04 -163.69,-2.04 -30.62,3.48 -45.91,5.22 -76.52,8.68l0 304.53c106.72,-12.07 160.06,-18.16 266.78,-30.44 43.93,-5.06 93.88,-17.92 149.87,-38.61 55.96,-20.67 98.13,-43.68 126.49,-69 56.96,145.84 85.45,218.77 142.43,364.58z"/>
   <path class="fil11" d="M10672.05 16433.07c49.46,-4.29 90.77,-19.79 123.95,-46.54 33.14,-26.75 57.94,-61.08 74.34,-103.03 16.4,-41.93 24.82,-87.85 25.22,-137.77 0.08,-11.64 0.13,-17.48 0.23,-29.13 0.17,-22.17 -7.85,-48.34 -24.08,-78.49 -16.24,-30.14 -37.49,-51.36 -63.74,-63.68 26.47,-16.11 48.1,-41 64.85,-74.65 16.75,-33.64 25.21,-60.87 25.38,-81.67 0.57,-70.01 -6.41,-124.51 -20.93,-163.47 -30.61,-86.08 -96.6,-124.79 -197.98,-116 -101.4,8.76 -168.51,59.01 -201.38,150.56 -14.36,42.17 -24.24,99.9 -22.37,169.3 0.62,23.01 10.11,49.53 25.93,78.28 15.84,28.75 36.04,48.98 60.66,60.68 -24.84,16.71 -45.42,40.86 -61.74,72.44 -16.31,31.57 -25.41,59.22 -27.24,82.94 -0.09,12.49 -0.14,18.72 -0.25,31.21 -0.4,49.92 7.46,94.43 23.64,133.55 16.14,39.12 40.41,69.2 72.78,90.28 32.37,21.09 73.29,29.47 122.73,25.19zm25.16 558.01c0.53,-5.44 0.8,-8.17 1.33,-13.61 0.28,-33.29 -18.17,-72.3 -54.65,-116.87 -43.33,-52.94 -91.59,-115.71 -127.47,-127.14 -50.65,-16.11 -186.37,-27.44 -262.66,-64.66 -76.28,-37.2 -136.42,-90.22 -180.34,-159.05 -43.93,-68.82 -65.49,-153.14 -64.68,-252.99 0.19,-24.96 0.31,-37.43 0.5,-62.4 0.18,-22.18 -7.85,-48.3 -24.07,-78.39 -16.26,-30.06 -37.48,-51.2 -63.75,-63.39 26.49,-16.24 48.1,-41.21 64.86,-74.94 16.74,-33.72 25.2,-60.99 25.37,-81.77 0.2,-24.96 0.31,-37.45 0.51,-62.41 0.95,-117.87 31.84,-219.04 92.64,-303.46 60.8,-84.43 141.66,-151.2 242.58,-200.34 100.88,-49.07 212.32,-78.96 334.31,-89.53 122.83,-10.64 234.38,-0.05 334.61,31.67 100.21,31.75 179.69,84.76 238.41,158.93 58.71,74.17 87.59,170.24 86.64,288.1 -0.24,28.28 -0.36,42.43 -0.58,70.72 2.29,23.38 11.54,48.62 27.81,75.69 16.24,27.1 35.85,46.3 58.85,57.6 -23.21,15.04 -43.15,37.63 -59.87,67.73 -16.74,30.11 -26.41,57.07 -29.06,80.84 -0.23,28.27 -0.34,42.42 -0.58,70.72 -0.86,106.78 -26.94,200.03 -78.25,279.74 -51.3,79.76 -120.4,144.71 -207.31,194.95 75.46,40.09 133.33,64.76 173.62,73.9 -211.5,119.7 -317.26,179.82 -528.77,300.36z"/>
   <path class="fil11" d="M12037.33 16691.72c-101.42,11.67 -194.36,1.63 -278.78,-30.19 -84.4,-31.84 -151.8,-86.01 -202.11,-162.7 -50.32,-76.66 -76.18,-175.68 -77.61,-297.08 -0.31,-26.01 -0.47,-39.02 -0.78,-65.03 -0.25,-23.12 -7.62,-50.24 -22.05,-81.39 -14.44,-31.13 -32.38,-52.97 -53.77,-65.49 21.05,-17.11 38.41,-43.14 52.07,-78.13 13.65,-34.98 20.35,-63.69 20.1,-86.09 -1.49,-124.44 -2.21,-186.66 -3.68,-311.08 -0.53,-44.83 -8.22,-99.58 -23.04,-164.34 -14.84,-64.71 -33.05,-110.58 -54.64,-137.54 206.38,-25.83 309.56,-38.43 515.96,-62.59 -20.9,32.12 -38,82.26 -51.24,150.39 -13.26,68.16 -19.62,124.62 -19.09,169.43 1.48,125.29 2.22,187.96 3.69,313.26 1.66,23.68 9.34,50.62 23.09,80.84 13.73,30.24 31.31,51.32 52.72,63.27 -21.06,17.68 -38.09,43.01 -51.08,76.03 -12.99,33.01 -20.03,61.89 -21.11,86.62 0.15,13 0.23,19.51 0.39,32.52 0.61,52.02 8.02,98.37 22.22,139.02 14.21,40.65 34.98,71.86 62.36,93.64 27.34,21.77 61.6,30.26 102.7,25.53 41.13,-4.73 75.06,-21.06 101.84,-49.06 26.76,-27.99 46.76,-63.87 59.95,-107.67 13.22,-43.81 19.52,-91.73 18.91,-143.76 -0.15,-12.13 -0.23,-18.21 -0.37,-30.34 -0.28,-23.13 -7.45,-50.36 -21.55,-81.71 -14.1,-31.36 -32.19,-53.4 -54.3,-66.1 21.75,-16.92 39.28,-42.94 52.59,-78.08 13.33,-35.13 19.84,-63.54 19.58,-85.21 -1.46,-124.44 -2.19,-186.66 -3.66,-311.1 -0.53,-44.81 -7.86,-99.69 -22.01,-164.71 -14.14,-64.97 -32.37,-111.05 -54.64,-138.2 206.4,-23.28 309.6,-34.45 516.05,-55.36 -21.6,31.84 -38.86,81.72 -51.76,149.6 -12.94,67.92 -19.13,124.26 -18.59,169.07 1.49,127.9 2.25,191.86 3.76,319.76 2.36,24.37 10.24,50.87 23.6,79.51 13.37,28.64 30.42,48.43 51.12,59.36 -20.4,15.8 -36.95,39.41 -49.59,70.7 -12.69,31.34 -19.89,59.41 -21.66,84.18 0.35,29.48 0.53,44.23 0.87,73.7 1.43,121.41 -22.2,226.04 -70.92,313.98 -48.7,87.98 -114.62,157.38 -197.72,208.41 -83.13,51.06 -175.73,82.38 -277.82,94.13z"/>
   <path class="fil11" d="M14204.26 16414.22c-222.8,32.49 -334.11,49.71 -556.59,85.69 20.08,-33.74 34.54,-85.72 43.35,-155.94 8.8,-70.2 11.12,-127.68 6.93,-172.4 -11.75,-125.76 -17.63,-188.65 -29.39,-314.41 -2.19,-23.45 -12.43,-50.65 -30.68,-81.57 -18.27,-30.93 -39.58,-52.25 -63.91,-63.93 21.53,-18.36 38.27,-45.78 50.25,-82.29 11.94,-36.5 16.9,-65.76 14.85,-87.74 -11.81,-126.2 -17.7,-189.32 -29.5,-315.52 -31.91,5.1 -47.87,7.66 -79.78,12.83 -45.05,7.28 -96.24,23.25 -153.53,48.02 -57.29,24.75 -99.66,51.08 -127.03,78.78 -74.11,-147.82 -111.15,-221.69 -185.24,-369.32 475.57,-80.32 951.25,-153.86 1430.34,-219.48 -45.23,165.78 -67.86,248.74 -113.07,414.81 -30.98,-18.76 -76.44,-31.65 -136.3,-38.43 -59.88,-6.77 -112.73,-6.77 -158.58,-0.09 -31.96,4.66 -47.94,7.02 -79.88,11.75 11.8,126.22 17.69,189.32 29.49,315.51 2.06,21.98 12.07,48.94 30.05,80.83 17.98,31.89 39.48,53.44 64.53,64.64 -22.25,18.84 -39.18,46.04 -50.85,81.58 -11.68,35.54 -16.42,65.04 -14.23,88.48 11.75,125.77 17.63,188.66 29.39,314.42 4.18,44.72 16.82,99.89 37.98,165.48 21.11,65.61 44.91,111.71 71.4,138.3z"/>
   <path class="fil11" d="M15963.55 16155.63c-428.21,49.26 -853.38,104.7 -1279.49,166.16 21.33,-32.97 36.51,-83.72 45.53,-152.25 9.01,-68.54 11.16,-124.61 6.38,-168.23 -13.38,-122.7 -20.09,-184.06 -33.48,-306.76 -2.49,-22.86 -13.64,-49.38 -33.44,-79.53 -19.78,-30.15 -42.77,-50.92 -68.96,-62.26 22.98,-17.97 40.78,-44.77 53.38,-80.39 12.61,-35.65 17.76,-64.2 15.41,-85.64 -13.44,-123.13 -20.16,-184.7 -33.6,-307.82 -4.85,-44.34 -18.98,-98.19 -42.39,-161.61 -23.43,-63.37 -49,-107.93 -76.75,-133.58 426.13,-61.45 851.28,-116.9 1279.49,-166.14 -47.12,160.99 -70.67,241.57 -117.76,402.92 -34.22,-18.51 -83.53,-31.48 -147.87,-38.65 -64.36,-7.16 -121.14,-7.61 -170.36,-1.45 -119.56,14.92 -179.31,22.67 -298.76,38.7 13.46,123.12 20.16,184.69 33.6,307.81 34.27,-4.59 51.4,-6.88 85.67,-11.37 49.19,-6.48 109.49,-21.76 180.92,-45.59 71.4,-23.83 121.85,-48.61 151.21,-74.62 20.14,184.48 30.21,276.73 50.35,461.21 -34.29,-19.05 -88.72,-31.1 -163.27,-35.87 -74.56,-4.74 -136.4,-3.79 -185.6,2.7 -34.27,4.5 -51.4,6.78 -85.67,11.37 13.41,122.7 20.09,184.06 33.5,306.76 119.44,-16.03 179.19,-23.78 298.76,-38.72 49.2,-6.14 104.41,-20.16 165.62,-41.96 61.17,-21.77 106.48,-45.47 135.85,-71.28 80.66,146.26 121.01,219.47 201.73,366.09z"/>
   <g>
    <image x="2073.34" y="14054.29" width="14473.58" height="2049" xlink:href="LOGO_Images\LOGO_ImgID2.png"/>
   </g>
   <path class="fil11" d="M9998.81 16696.12c6.63,65.6 -5.62,125.36 -37.84,180.08 -13.67,23.24 -31.93,46.24 -55.79,70.51 -23.85,24.26 -53.65,46.31 -90.52,66.26 -36.89,19.95 -80.84,37.79 -133.07,52.94 -52.16,15.85 -113.95,27.04 -183.02,34.02l-139.29 14.09c-139.28,14.09 -246.5,5.9 -323.84,-23.64 -77.34,-29.54 -133.53,-64.75 -169.69,-105.51 -44.79,-46.93 -71.1,-103.5 -77.73,-169.09l-3.46 -34.2c-0.85,-8.37 5.25,-16.04 18.33,-22.3 15.36,-6.49 38.44,-15.87 70.29,-28.97 30.72,-12.97 62.49,-26.76 96.4,-42.18 32.77,-15.29 65.68,-29.2 98.67,-42.41 31.85,-13.09 57.04,-24.1 74.53,-32.21 7.57,-4.3 14.36,-4.98 20.38,-2.06 8.07,0.59 11.89,4.44 12.52,10.72l17.72 175.16c2.19,21.63 9.48,37.11 21.93,47.13 11.39,10.83 24.76,18.65 38.99,23.55 13.09,5.02 29.37,7.61 46.5,7.29 17.19,0.37 31.99,-0.42 42.18,-1.45l123.42 -12.49c13.59,-1.37 28.24,-3.56 43.88,-7.25 15.72,-3 30.01,-8.68 42.97,-16.33 12.95,-7.66 24.48,-17.99 33.48,-30.88 9.06,-12.2 13.1,-28.83 10.91,-50.46l-15.67 -154.93c-1.84,-18.14 -2.4,-35.01 -2.74,-49.78 -0.36,-14.76 -4.11,-29.19 -11.18,-42.58 -7.08,-13.38 -19.88,-26.89 -38.35,-39.83 -18.47,-12.93 -49.46,-25.31 -90.78,-38.05 -10.83,-5.25 -28.17,-7.02 -51.95,-4.61 -13.38,3.46 -29.16,5.76 -46.08,8.18 -16.92,2.41 -33.68,6.23 -49.18,11.32 -19.05,4.04 -38.16,7.38 -59.46,11.65 0,0 -5.65,0.58 -15.85,1.61 -6.01,-2.92 -8.63,-6.18 -8.98,-9.67l-21.29 -52.14c-8.13,-23.85 -29.29,-40.74 -65.74,-50.45 -77.56,-20.36 -140.25,-40.8 -189.16,-60.53 -48.89,-19.73 -87.88,-43.28 -116.97,-70.66 -29.01,-26.67 -49.37,-58.45 -62.25,-95.22 -12.87,-36.77 -22.06,-82.37 -27.57,-136.81l-12.42 -122.82c-6.64,-65.6 5.56,-126.06 37.77,-180.78 28.39,-47.29 77.52,-93.14 148.58,-137 70.01,-43.03 174.62,-71.95 313.9,-86.04l87.19 -8.82c69.08,-6.98 131.85,-8.4 186.06,-4.01 54.21,4.39 100.85,13.07 140.98,25.22 40.19,12.86 73.8,28.49 101.89,46.1 26.96,17.71 49.53,37.29 67.72,58.71 42.52,47.17 67.7,103.84 74.33,169.44l4.24 41.87c0.63,6.28 -4.32,13.84 -13.88,21.15 -15.36,6.49 -38.37,16.57 -67.95,29.43 -29.58,12.86 -62.49,26.77 -96.54,40.79 -35.17,14.13 -68.01,28.73 -98.66,42.41 -30.65,13.67 -56.91,25.49 -77.79,33.96 0,0 -6.79,0.68 -19.26,1.94 -6.01,-2.92 -8.7,-6.88 -9.19,-11.76l-18.15 -179.35c-2.05,-20.24 -9.32,-35.72 -20.79,-47.25 -12.52,-10.72 -25.89,-18.53 -41.18,-22.63 -15.29,-4.09 -31.49,-5.97 -48.69,-6.35 -17.13,0.32 -33.05,1.23 -46.64,2.6l-71.34 7.22c-13.59,1.37 -29.37,3.67 -46.21,6.79 -16.78,3.81 -32.28,8.91 -46.43,15.98 -14.16,7.07 -26.83,17.51 -35.83,30.41 -8.91,13.59 -12.96,30.21 -10.91,50.45l12.64 124.93c2.47,24.42 4.66,46.05 5.37,64.31 0.69,18.26 5.86,35.36 15.41,50.61 9.62,15.95 27.1,30.4 52.43,43.34 25.4,13.65 62.27,27.55 112.94,42.16 12.95,3.63 27.96,4.93 43.81,3.32 13.37,-3.46 30.22,-6.58 50.39,-10.73 19.11,-3.34 38.22,-6.69 57.25,-10.72 21.17,-5.67 43.6,-10.06 67.24,-13.86 5.66,-0.57 10.27,-0.33 16.07,0.49 2.48,1.86 3.68,2.45 3.75,3.15 0.07,0.69 1.34,1.98 4.95,3.72 2.9,6.06 4.74,12.92 5.37,19.2 4.04,5.94 7.01,12.69 8.92,20.25 1.9,7.56 3.82,15.13 8.06,23.15 10.25,22.23 32.54,39.01 65.74,50.46 55.4,16.25 102.81,32.61 144.56,49.53 40.69,17.74 74.8,38.26 103.6,62.85 27.66,24.7 50.02,53.45 67,85.58 15.84,32.23 26.66,71.33 31.32,117.39l16.73 165.39z"/>
   <g>
    <image x="1777.53" y="9280.3" width="14959.55" height="9062.12" xlink:href="LOGO_Images\LOGO_ImgID3.png"/>
   </g>
  </g>
  <polygon class="fil2" points="28053.49,-7968.57 27097.46,-7968.57 27097.46,-23325.05 28053.49,-23325.05 "/>
  <polygon class="fil7" points="26788.15,-7916.11 25832.13,-7916.11 25832.13,-23272.57 26788.15,-23272.57 "/>
  <polygon class="fil4" points="25438.46,-7946.08 24482.44,-7946.08 24482.44,-23302.55 25438.46,-23302.55 "/>
  <polygon class="fil3" points="23920.06,-7946.08 22964.04,-7946.08 22964.04,-23302.55 23920.06,-23302.55 "/>
 </g>
</svg>
